<svg width="24" height="24" viewBox="0 0 24 24" fill="none" xmlns="http://www.w3.org/2000/svg">
<path d="M19.4511 7.34L16.7111 4.6C16.3535 4.2641 15.8849 4.07136 15.3944 4.05845C14.904 4.04555 14.4259 4.21337 14.0511 4.53L5.05108 13.53C4.72784 13.856 4.52658 14.2832 4.48108 14.74L4.05108 18.91C4.03761 19.0565 4.05661 19.2041 4.10674 19.3424C4.15687 19.4807 4.23688 19.6062 4.34108 19.71C4.43452 19.8027 4.54533 19.876 4.66717 19.9258C4.78901 19.9755 4.91947 20.0008 5.05108 20H5.14108L9.31108 19.62C9.76787 19.5745 10.1951 19.3732 10.5211 19.05L19.5211 10.05C19.8704 9.68097 20.0592 9.18851 20.0461 8.68054C20.0329 8.17256 19.819 7.69051 19.4511 7.34ZM16.0511 10.68L14.7111 9.34L13.3711 8L15.5 6.05776L18.0511 8.73L16.0511 10.68Z" fill="black"/>
</svg>
