<svg width="18" height="18" viewBox="0 0 18 18" fill="none" xmlns="http://www.w3.org/2000/svg">
<path d="M13.245 8.4C13.0725 8.175 12.8625 7.98 12.6675 7.785C12.165 7.335 11.595 7.0125 11.115 6.54C9.99754 5.445 9.75004 3.6375 10.4625 2.25C9.75004 2.4225 9.12754 2.8125 8.59504 3.24C6.65254 4.8 5.88754 7.5525 6.80254 9.915C6.83254 9.99 6.86254 10.065 6.86254 10.1625C6.86254 10.3275 6.75004 10.4775 6.60004 10.5375C6.42754 10.6125 6.24754 10.5675 6.10504 10.4475C6.06222 10.4121 6.02657 10.3688 6.00004 10.32C5.15254 9.2475 5.01754 7.71 5.58754 6.48C4.33504 7.5 3.65254 9.225 3.75004 10.8525C3.79504 11.2275 3.84004 11.6025 3.96754 11.9775C4.07254 12.4275 4.27504 12.8775 4.50004 13.275C5.31004 14.5725 6.71254 15.5025 8.22004 15.69C9.82504 15.8925 11.5425 15.6 12.7725 14.49C14.145 13.245 14.625 11.25 13.92 9.54L13.8225 9.345C13.665 9 13.245 8.4 13.245 8.4ZM10.875 13.125C10.665 13.305 10.32 13.5 10.05 13.575C9.21004 13.875 8.37004 13.455 7.87504 12.96C8.76754 12.75 9.30004 12.09 9.45754 11.4225C9.58504 10.8225 9.34504 10.3275 9.24754 9.75C9.15754 9.195 9.17254 8.7225 9.37504 8.205C9.51754 8.49 9.66754 8.775 9.84754 9C10.425 9.75 11.3325 10.08 11.5275 11.1C11.5575 11.205 11.5725 11.31 11.5725 11.4225C11.595 12.0375 11.325 12.7125 10.875 13.125Z" fill="white"/>
</svg>
