<svg width="24" height="24" viewBox="0 0 24 24" fill="none" xmlns="http://www.w3.org/2000/svg">
<path d="M3.464 3.464C4.93 2 7.286 2 12 2C13.023 2 13.934 2 14.75 2.015C14.754 2.585 14.973 3.155 15.409 3.591L16.568 4.75H14C11.383 4.75 9.748 6.048 9.086 6.713L8.9 6.9L8.713 7.086C8.048 7.748 6.75 9.383 6.75 12V15C6.75 15.5967 6.98705 16.169 7.40901 16.591C7.83097 17.0129 8.40326 17.25 9 17.25C9.59674 17.25 10.169 17.0129 10.591 16.591C11.0129 16.169 11.25 15.5967 11.25 15V12C11.25 10.98 11.738 10.424 11.887 10.275L12.079 10.085L12.275 9.887C12.424 9.738 12.98 9.25 14 9.25H16.568L15.409 10.409C14.987 10.831 14.75 11.4033 14.75 12C14.75 12.5967 14.987 13.169 15.409 13.591C15.831 14.013 16.4033 14.25 17 14.25C17.5967 14.25 18.169 14.013 18.591 13.591L21.996 10.186C22 10.749 22 11.352 22 12C22 16.714 22 19.071 20.535 20.535C19.072 22 16.714 22 12 22C7.286 22 4.929 22 3.464 20.535C2 19.072 2 16.714 2 12C2 7.286 2 4.929 3.464 3.464Z" fill="black"/>
<path fill-rule="evenodd" clip-rule="evenodd" d="M16.47 1.47C16.6106 1.32955 16.8012 1.25066 17 1.25066C17.1988 1.25066 17.3894 1.32955 17.53 1.47L22.53 6.47C22.6705 6.61062 22.7493 6.80125 22.7493 7C22.7493 7.19875 22.6705 7.38937 22.53 7.53L17.53 12.53C17.4613 12.6037 17.3785 12.6628 17.2865 12.7038C17.1945 12.7448 17.0952 12.7668 16.9945 12.7686C16.8938 12.7704 16.7938 12.7518 16.7004 12.7141C16.607 12.6764 16.5222 12.6203 16.451 12.549C16.3797 12.4778 16.3236 12.393 16.2859 12.2996C16.2482 12.2062 16.2296 12.1062 16.2314 12.0055C16.2332 11.9048 16.2552 11.8055 16.2962 11.7135C16.3372 11.6215 16.3963 11.5387 16.47 11.47L20.19 7.75H14C12.448 7.75 11.533 8.507 11.212 8.83L11.022 9.021L10.829 9.212C10.507 9.532 9.75 10.448 9.75 12V15C9.75 15.1989 9.67098 15.3897 9.53033 15.5303C9.38968 15.671 9.19891 15.75 9 15.75C8.80109 15.75 8.61032 15.671 8.46967 15.5303C8.32902 15.3897 8.25 15.1989 8.25 15V12C8.25 9.916 9.277 8.64 9.771 8.149L9.961 7.96L10.149 7.771C10.64 7.277 11.916 6.25 14 6.25H20.19L16.47 2.53C16.3295 2.38937 16.2507 2.19875 16.2507 2C16.2507 1.80125 16.3295 1.61062 16.47 1.47Z" fill="black"/>
</svg>
