<svg width="24" height="24" viewBox="0 0 24 24" fill="none" xmlns="http://www.w3.org/2000/svg">
<path d="M3 6.52401C3 6.12901 3.327 5.81001 3.73 5.81001H8.518C8.524 4.96801 8.616 3.81501 9.45 3.01701C10.137 2.36178 11.0506 1.9974 12 2.00001C12.9494 1.9974 13.863 2.36178 14.55 3.01701C15.384 3.81501 15.476 4.96801 15.482 5.81001H20.27C20.673 5.81001 21 6.13001 21 6.52401C20.999 6.61883 20.9792 6.71251 20.942 6.79971C20.9047 6.88691 20.8507 6.96591 20.7829 7.03222C20.7151 7.09852 20.6349 7.15082 20.5469 7.18613C20.4589 7.22144 20.3648 7.23907 20.27 7.23801H3.73C3.63518 7.23907 3.54109 7.22144 3.45309 7.18613C3.36509 7.15082 3.2849 7.09852 3.21711 7.03222C3.14933 6.96591 3.09526 6.88691 3.05801 6.79971C3.02076 6.71251 3.00104 6.61883 3 6.52401Z" fill="black"/>
<path fill-rule="evenodd" clip-rule="evenodd" d="M11.596 22H12.404C15.187 22 16.578 22 17.484 21.114C18.388 20.228 18.48 18.774 18.665 15.868L18.932 11.681C19.032 10.104 19.082 9.315 18.629 8.815C18.175 8.315 17.409 8.315 15.876 8.315H8.12398C6.59098 8.315 5.82398 8.315 5.37098 8.815C4.91698 9.315 4.96698 10.104 5.06798 11.681L5.33498 15.869C5.51998 18.775 5.61198 20.229 6.51698 21.114C7.42198 22 8.81298 22 11.596 22ZM10.246 12.188C10.206 11.755 9.83798 11.438 9.42598 11.481C9.01298 11.525 8.71298 11.911 8.75398 12.346L9.25398 17.609C9.29398 18.043 9.66198 18.359 10.074 18.316C10.487 18.272 10.787 17.886 10.746 17.452L10.246 12.188ZM14.575 11.481C14.987 11.525 15.288 11.911 15.246 12.346L14.746 17.609C14.706 18.043 14.337 18.359 13.926 18.316C13.513 18.272 13.213 17.886 13.254 17.452L13.754 12.188C13.794 11.755 14.164 11.438 14.575 11.481Z" fill="black"/>
</svg>
